<svg id="Capa_1" enable-background="new 0 0 512 512" height="512" viewBox="0 0 512 512" width="512" xmlns="http://www.w3.org/2000/svg"><g><path d="m451.002 183.574h29.997v84.853h-29.997z" fill="#fabe2c" transform="matrix(.707 -.707 .707 .707 -23.318 395.706)"/><path d="m271.002 3.574h29.997v84.853h-29.997z" fill="#ffe14d" transform="matrix(.707 -.707 .707 .707 51.241 215.706)"/><path d="m361 0h30v61h-30z" fill="#fabe2c"/><path d="m451 121h61v30h-61z" fill="#fabe2c"/><g><path d="m496 16-10.605-10.605-60 60 10.605 10.605 10.605 10.605 60-60z" fill="#ffe14d"/><path d="m428.876 43.804h84.853v14.998h-84.853z" fill="#fabe2c" transform="matrix(.707 -.707 .707 .707 101.765 348.288)"/><path d="m24.994 277.006 125.464 42.114-150.458 150.458 21.211 21.211 21.211 21.211 150.458-150.458 42.114 125.464 152.988-362.988z" fill="#404a80"/><path d="m192.88 361.542 42.114 125.464 152.988-362.988-366.771 366.771 21.211 21.211z" fill="#283366"/></g></g></svg>