<svg id="Capa_1" enable-background="new 0 0 512 512" height="512" viewBox="0 0 512 512" width="512" xmlns="http://www.w3.org/2000/svg"><g><path d="m256 313.684c-141.387 0-243.753-147.258-222.328-184.685 44.119-77.069 127.158-128.999 222.328-128.999s178.209 51.93 222.328 128.999c21.425 37.428-80.941 184.685-222.328 184.685z" fill="#ffdf66"/><path d="m512 256c0 26.051-3.891 51.191-11.129 74.871-5.031 16.469-11.672 32.231-19.75 47.109-8.25 15.2-147.391 52.988-225.121 52.988s-216.871-37.788-225.109-52.988c-3.289-6.031-6.332-12.21-9.121-18.531-14-31.629-21.77-66.629-21.77-103.449 0-46.219 12.25-89.57 33.68-127 44.121 77.07 127.16 129 222.32 129s178.211-51.93 222.32-129c21.43 37.43 33.68 80.781 33.68 127zm0 0" fill="#fec21b"/><path d="m481.262 377.699c-6.23 11.505-13.303 22.478-21.155 32.833-1.172 1.546-137.498 30.209-204.107 30.209s-202.934-28.661-204.106-30.207c-7.852-10.356-14.926-21.329-21.156-32.835zm0 0" fill="#fd8f01"/><path d="m460.109 410.517v-161.627l-24.716-23.919h-179.393-180.19l-23.919 23.919v161.627c46.745 61.653 120.77 101.483 204.109 101.483s157.364-39.83 204.109-101.483z" fill="#5c6687"/><path d="m162.731 224.971h-86.921l-23.919 23.919v161.627c28.285 37.305 66.56 66.614 110.841 83.949v-269.495z" fill="#737b97"/><path d="m460.109 410.517v-161.627l-24.716-23.919h-179.393v287.029c83.339 0 157.364-39.83 204.109-101.483z" fill="#444f75"/><path d="m387.555 344.566v-23.919h-131.555-131.555v23.919h23.919v71.757h-23.919v23.919h131.555 131.555v-23.919h-23.919v-71.757zm-47.838 71.758h-83.717-83.717v-71.757h83.717 83.717z" fill="#dae0f0"/><path d="m387.555 416.324h-23.919v-71.758h23.919v-23.919h-131.555v23.919h83.717v71.758h-83.717v23.919h131.555z" fill="#c7d0e8"/><path d="m370.827 153.214h89.282v95.676h-89.282z" fill="#dae0f0"/><path d="m370.826 153.214h-71.754v95.676h71.757l59.787-47.838z" fill="#2d3a64"/><path d="m299.072 153.214h-43.072-28.686l.003 95.676h28.683 43.072l59.787-47.838z" fill="#fef6eb"/><path d="m358.859 201.052-59.787-47.838h-43.072v95.676h43.072z" fill="#dae0f0"/><path d="m256 176.167-28.686-22.953h-71.757l.003 95.676h71.757l28.683-22.951 31.102-24.887z" fill="#444f75"/><path d="m256 176.167v49.772l31.102-24.887z" fill="#2d3a64"/><path d="m155.557 153.214h-103.666v95.676h103.669l59.785-47.838z" fill="#fef6eb"/><path d="m100.526 189.093h23.919v23.919h-23.919z" fill="#444f75"/><path d="m51.891 249.231h408.219v23.919h-408.219z" fill="#5c6687"/><g fill="#fff"><path d="m160.204 91.85h-1.524c-6.754 0-12.226-5.477-12.226-12.227v-1.523h-8.715v1.523c0 6.75-5.477 12.227-12.227 12.227h-1.527v8.715h1.527c6.75 0 12.227 5.472 12.227 12.226v1.528h8.715v-1.528c0-6.754 5.472-12.226 12.226-12.226h1.524zm0 0"/><path d="m388.015 91.85h-1.524c-6.754 0-12.226-5.477-12.226-12.227v-1.523h-8.715v1.523c0 6.75-5.477 12.227-12.227 12.227h-1.527v8.715h1.527c6.75 0 12.227 5.472 12.227 12.226v1.528h8.715v-1.528c0-6.754 5.472-12.226 12.226-12.226h1.524zm0 0"/><path d="m278.081 46.33h-1.524c-6.754 0-12.226-5.477-12.226-12.227v-1.523h-8.715v1.523c0 6.75-5.477 12.227-12.227 12.227h-1.527v8.715h1.527c6.75 0 12.227 5.472 12.227 12.226v1.528h8.715v-1.528c0-6.754 5.472-12.226 12.226-12.226h1.524zm0 0"/></g><path d="m162.731 249.231h297.378v23.919h-297.378z" fill="#444f75"/><path d="m256 249.231h204.109v23.919h-204.109z" fill="#2d3a64"/></g></svg>