<svg id="Layer_1" enable-background="new 0 0 508.235 508.235" height="512" viewBox="0 0 508.235 508.235" width="512" xmlns="http://www.w3.org/2000/svg"><g><g><path d="m205.775 281.16-2.873-7.033c-1.365-3.342.238-7.158 3.58-8.523l42.296-17.275c3.342-1.365 7.158.238 8.523 3.58l2.873 7.033c1.365 3.342-.238 7.158-3.58 8.523l-42.296 17.275c-3.342 1.365-7.158-.238-8.523-3.58z" fill="#373c41"/></g><g id="XMLID_291_"><path d="m343.405 384.001c-3.578.686-7.38.461-11.063-.838l-108.613-38.297-106.509 17.612c-11.597 1.917-22.553-5.929-24.471-17.526-1.917-11.597 5.925-22.542 17.526-24.471l111.903-18.504c3.539-.585 7.167-.267 10.55.926l113.769 40.115c11.086 3.909 16.904 16.064 12.995 27.15-2.61 7.402-8.897 12.456-16.087 13.833z" fill="#414b82"/></g><path d="m153.963 206.882c-1.816-14.492-15.036-24.768-29.528-22.952l-44.65 5.594c-7.317.917-13.918 4.847-18.212 10.842s-5.889 13.51-4.402 20.733l26.409 128.228c1.367 6.64 5.645 12.314 11.652 15.457s13.107 3.421 19.342.758l51.148-64.815z" fill="#64afff"/><ellipse cx="95.277" cy="133.629" fill="#ffb69e" rx="39.147" ry="39.148" transform="matrix(.175 -.985 .985 .175 -52.928 204.125)"/><g id="XMLID_268_"><path d="m213.474 260.962c-.083 0-.166.001-.249.002l-59.961.826-7.612-14.521h-19.82l-11.562 16.538 12.635 24.103c3.065 5.847 9.12 9.502 15.708 9.502.081 0 .164-.001.245-.002l70.855-.976c9.795-.135 17.625-8.185 17.491-17.979-.134-9.712-8.048-17.493-17.73-17.493z" fill="#ffb69e"/><path d="m114.27 263.807 31.382-16.538-22.084-42.128c-4.547-8.675-15.268-12.021-23.944-7.474-8.676 4.548-12.022 15.269-7.474 23.944z" fill="#4699f2"/></g><g><path d="m191.506 296.617h-110.229l-21.061-99.213c-2.985-14.06-15.398-24.114-29.771-24.114-19.352 0-33.789 17.824-29.771 36.753l44.203 205.23c1.974 9.3 10.185 15.972 19.692 15.972h.843 146.585c9.135 0 16.54-7.427 16.54-16.561v-81.034c.002-20.452-16.578-37.033-37.031-37.033z" fill="#783c28"/></g><g><path d="m365.873 383.951h-90.902c-6.571 0-11.898 5.327-11.898 11.898v23.197c0 6.571 5.327 12.2 11.898 12.2h90.902c6.571 0 11.898-5.629 11.898-12.2v-23.197c0-6.571-5.327-11.898-11.898-11.898z" fill="#783c28"/></g><path d="m500.247 76.989h-21.748c-4.412 0-7.988 3.576-7.988 7.988v239.173c0 4.412 3.576 7.989 7.988 7.989h21.748c4.412 0 7.988-3.577 7.988-7.989v-239.173c0-4.412-3.577-7.988-7.988-7.988z" fill="#373c41"/><path d="m498.197 370.543h-75.452c-5.543 0-10.037 4.494-10.037 10.038v36.461c0 5.543 4.494 14.204 10.037 14.204h75.452c5.544 0 10.037-8.661 10.037-14.204v-36.462c.001-5.544-4.493-10.037-10.037-10.037z" fill="#a5c8cd"/></g></svg>