<svg id="Layer_1" enable-background="new 0 0 508.235 508.235" height="512" viewBox="0 0 508.235 508.235" width="512" xmlns="http://www.w3.org/2000/svg"><g><path d="m92.696 294.628h38.82c-7.191-2.076-12.828-7.872-14.63-15.202l-12.098-49.157 21.932 44.288c2.995 6.048 9.158 9.865 15.893 9.865.082 0 .164 0 .246-.001l70.855-.976c9.799-.135 17.943-8.296 17.452-18.583l24.487-10.001c3.863-1.578 5.715-5.988 4.137-9.851l-2.103-5.149c-1.578-3.863-5.988-5.715-9.85-4.137l-30.849 12.6c-3.554-.716-.806-.233-63.44.473l-16.971-34.27 18.753 23.271 4.128-.057-5.494-43.848c-1.816-14.492-15.036-24.768-29.528-22.953l-44.65 5.594c-6.041.757-11.591 3.573-15.761 7.904 4.219 4.847 7.293 10.786 8.727 17.457z"/><ellipse cx="95.277" cy="120.639" rx="39.147" ry="39.148" transform="matrix(.322 -.947 .947 .322 -49.609 172.017)"/><path d="m44.878 428.284c1.974 9.3 10.185 15.951 19.692 15.951h.84.004 146.585c9.135 0 16.54-7.405 16.54-16.54v-84.034c0-20.453-16.58-37.033-37.033-37.033h-110.229l-21.061-99.213c-3.509-16.531-19.845-27.088-36.468-23.373-15.837 3.539-26.611 19.343-23.073 36.012 1.536 7.238 43.702 205.869 44.203 208.23z"/><path d="m359.011 388.242h-24.083c1.879-1.553 3.526-3.449 4.826-5.677 5.925-10.152 2.497-23.186-7.655-29.11-111.272-64.908-104.112-60.818-105.512-61.507-3.819 1.966-8.137 3.107-12.724 3.17l-19.894.274c25.897 1.288 46.569 22.76 46.569 48.97v4.947l66.715 38.933h-39.143c-6.571 0-11.898 5.327-11.898 11.898v32.197c0 6.571 5.327 11.898 11.898 11.898h90.902c6.571 0 11.898-5.327 11.898-11.898v-32.197c0-6.571-5.327-11.898-11.899-11.898z"/><path d="m500.246 64h-21.748c-4.412 0-7.988 3.576-7.988 7.988v239.172c0 4.412 3.576 7.989 7.988 7.989h21.748c4.412 0 7.988-3.577 7.988-7.989v-239.172c.001-4.412-3.576-7.988-7.988-7.988z"/><path d="m498.197 358.698h-75.452c-5.543 0-10.037 4.494-10.037 10.038v65.461c0 5.543 4.494 10.038 10.037 10.038h75.452c5.544 0 10.037-4.494 10.037-10.038v-65.461c.001-5.544-4.493-10.038-10.037-10.038z"/></g></svg>